<?xml version="1.0" encoding="UTF-8" standalone="no"?>
<!-- Created with Inkscape (http://www.inkscape.org/) -->

<svg
   version="1.1"
   id="svg1"
   width="793.33331"
   height="1122.6667"
   viewBox="0 0 793.33331 1122.6667"
   sodipodi:docname="arlon-temp.pdf"
   xmlns:inkscape="http://www.inkscape.org/namespaces/inkscape"
   xmlns:sodipodi="http://sodipodi.sourceforge.net/DTD/sodipodi-0.dtd"
   xmlns="http://www.w3.org/2000/svg"
   xmlns:svg="http://www.w3.org/2000/svg">
  <defs
     id="defs1">
    <linearGradient
       x1="257.96201"
       y1="331.289"
       x2="264.03799"
       y2="325.06201"
       gradientUnits="userSpaceOnUse"
       gradientTransform="scale(10)"
       spreadMethod="pad"
       id="linearGradient21">
      <stop
         style="stop-opacity:1;stop-color:#fa981d"
         offset="0"
         id="stop20" />
      <stop
         style="stop-opacity:1;stop-color:#f26b25"
         offset="1"
         id="stop21" />
    </linearGradient>
    <clipPath
       clipPathUnits="userSpaceOnUse"
       id="clipPath21">
      <path
         d="m 2786.3501,3396.9403 0.01,-0.44 -316.79,-312.7 h -0.39 c -0.01,1.33 -0.04,2.65 -0.04,3.98 0,170.77 140.24,309.21 313.24,309.21 1.33,0 2.65,-0.03 3.97,-0.05 z"
         clip-rule="evenodd"
         id="path21" />
    </clipPath>
    <linearGradient
       x1="369.798"
       y1="434.26801"
       x2="377.50101"
       y2="426.37299"
       gradientUnits="userSpaceOnUse"
       gradientTransform="scale(10)"
       spreadMethod="pad"
       id="linearGradient27">
      <stop
         style="stop-opacity:1;stop-color:#fa981d"
         offset="0"
         id="stop26" />
      <stop
         style="stop-opacity:1;stop-color:#f26b25"
         offset="1"
         id="stop27" />
    </linearGradient>
    <clipPath
       clipPathUnits="userSpaceOnUse"
       id="clipPath27">
      <path
         d="m 3960.0701,4449.2404 v -0.56 l -401.6,-396.43 -0.5,0.01 c -0.02,1.67 -0.06,3.35 -0.06,5.04 0,216.49 177.79,392 397.12,392 1.68,0 3.36,-0.04 5.04,-0.06 z"
         clip-rule="evenodd"
         id="path27" />
    </clipPath>
  </defs>
  <sodipodi:namedview
     id="namedview1"
     pagecolor="#ffffff"
     bordercolor="#000000"
     borderopacity="0.25"
     inkscape:showpageshadow="2"
     inkscape:pageopacity="0.0"
     inkscape:pagecheckerboard="0"
     inkscape:deskcolor="#d1d1d1">
    <inkscape:page
       x="0"
       y="0"
       inkscape:label="1"
       id="page1"
       width="793.33331"
       height="1122.6667"
       margin="0"
       bleed="0" />
  </sodipodi:namedview>
  <g
     id="g1"
     inkscape:groupmode="layer"
     inkscape:label="1">
    <path
       id="path1"
       d="m 2558,4836.05 c 212.68,0 386.23,-165.13 396.41,-372.6 l -4.56,0.05 c -86.03,0 -166.37,-26.27 -232.8,-71.37 l -113.57,261.01 h -77.04 l -160.24,-368.3 h 86.16 l 33.93,81.43 h 155.21 l 11.58,-27.77 c -70.68,-72.66 -114.4,-171.4 -114.4,-281.05 l 0.05,-4.59 c -210.29,9.93 -377.7,181.31 -377.7,391.34 0,216.41 177.72,391.85 396.97,391.85 z m 396.88,-386.81 0.01,-0.56 -401.45,-396.28 -0.5,0.01 -0.05,5.04 c 0,103.04 40.28,196.79 106.16,266.73 v 0.01 l 0.01,-0.03 c 19.2,20.38 40.57,38.75 63.75,54.73 l -0.01,0.02 v 0.01 c 64.34,44.36 142.61,70.38 227.05,70.38 z m -343.65,-9.79 -47.33,112.99 -47.32,-112.99 z"
       style="fill:#f15629;fill-opacity:1;fill-rule:nonzero;stroke:none"
       transform="matrix(0.13333333,0,0,-0.13333333,0,1122.6667)" />
    <path
       id="path2"
       d="m 2997.88,3374.56 -23.74,57.67 -23.74,-57.67 z m -41.35,104.67 h 36.24 l 76.58,-179.12 h -41.09 l -16.34,39.89 h -75.56 l -16.33,-39.89 h -40.08 l 76.58,179.12"
       style="fill:#f15629;fill-opacity:1;fill-rule:nonzero;stroke:none"
       transform="matrix(0.13333333,0,0,-0.13333333,0,1122.6667)" />
    <path
       id="path3"
       d="m 3210.72,3391.58 c 9.76,0 17.24,2.29 22.47,6.86 5.21,4.57 7.83,10.67 7.83,18.29 v 0.51 c 0,8.47 -2.75,14.82 -8.22,19.06 -5.48,4.23 -13.1,6.35 -22.85,6.35 h -39.27 v -51.07 z m -79.57,86.38 h 82.14 c 22.76,0 40.22,-6.01 52.37,-18.03 10.27,-10.16 15.4,-23.72 15.4,-40.66 v -0.5 c 0,-14.4 -3.55,-26.13 -10.65,-35.19 -7.1,-9.06 -16.39,-15.71 -27.86,-19.95 l 43.9,-63.52 h -46.21 l -38.5,56.92 h -0.51 -30.55 v -56.92 h -39.53 v 177.85"
       style="fill:#f15629;fill-opacity:1;fill-rule:nonzero;stroke:none"
       transform="matrix(0.13333333,0,0,-0.13333333,0,1122.6667)" />
    <path
       id="path4"
       d="m 3362.38,3477.96 h 39.13 v -142.53 h 88.67 v -35.32 h -127.8 v 177.85"
       style="fill:#f15629;fill-opacity:1;fill-rule:nonzero;stroke:none"
       transform="matrix(0.13333333,0,0,-0.13333333,0,1122.6667)" />
    <path
       id="path5"
       d="m 3636.65,3333.12 c 7.85,0 15.11,1.43 21.77,4.31 6.65,2.88 12.33,6.86 17.02,11.93 4.69,5.08 8.36,10.96 11.01,17.65 2.64,6.69 3.96,13.83 3.96,21.45 v 0.51 c 0,7.61 -1.32,14.81 -3.96,21.58 -2.65,6.77 -6.4,12.69 -11.27,17.77 -4.86,5.08 -10.62,9.1 -17.28,12.06 -6.65,2.96 -13.91,4.44 -21.76,4.44 -8.02,0 -15.32,-1.43 -21.89,-4.32 -6.57,-2.87 -12.2,-6.84 -16.89,-11.93 -4.7,-5.07 -8.36,-10.96 -11.01,-17.64 -2.65,-6.68 -3.97,-13.84 -3.97,-21.45 v -0.51 c 0,-7.61 1.32,-14.81 3.97,-21.58 2.65,-6.77 6.4,-12.69 11.26,-17.77 4.87,-5.08 10.58,-9.1 17.16,-12.06 6.57,-2.96 13.86,-4.44 21.88,-4.44 z m -0.51,-36.06 c -13.82,0 -26.54,2.42 -38.14,7.24 -11.61,4.83 -21.64,11.34 -30.08,19.55 -8.45,8.21 -15.02,17.85 -19.71,28.94 -4.7,11.09 -7.05,22.98 -7.05,35.67 v 0.51 c 0,12.69 2.39,24.58 7.17,35.67 4.78,11.08 11.39,20.82 19.84,29.2 8.45,8.37 18.52,14.97 30.21,19.8 11.69,4.82 24.45,7.24 38.27,7.24 13.83,0 26.54,-2.42 38.15,-7.24 11.6,-4.83 21.63,-11.34 30.08,-19.55 8.45,-8.21 15.02,-17.86 19.71,-28.94 4.7,-11.09 7.04,-22.98 7.04,-35.67 v -0.51 c 0,-12.69 -2.39,-24.58 -7.17,-35.67 -4.77,-11.09 -11.39,-20.82 -19.83,-29.19 -8.45,-8.38 -18.52,-14.98 -30.22,-19.81 -11.69,-4.82 -24.45,-7.24 -38.27,-7.24"
       style="fill:#f15629;fill-opacity:1;fill-rule:nonzero;stroke:none"
       transform="matrix(0.13333333,0,0,-0.13333333,0,1122.6667)" />
    <path
       id="path6"
       d="m 3796.33,3477.96 h 36.28 l 83.8,-109.5 v 109.5 h 38.84 v -177.85 h -33.47 l -86.61,113.07 v -113.07 h -38.84 v 177.85"
       style="fill:#f15629;fill-opacity:1;fill-rule:nonzero;stroke:none"
       transform="matrix(0.13333333,0,0,-0.13333333,0,1122.6667)" />
    <path
       id="path7"
       d="m 2262.13,3877.7 -16.54,40.19 -16.53,-40.19 z m -28.81,72.93 h 25.26 l 53.35,-124.79 h -28.63 l -11.39,27.79 h -52.63 l -11.39,-27.79 h -27.92 l 53.35,124.79"
       style="fill:#f15629;fill-opacity:1;fill-rule:nonzero;stroke:none"
       transform="matrix(0.13333333,0,0,-0.13333333,0,1122.6667)" />
    <path
       id="path8"
       d="m 2410.43,3889.57 c 6.79,0 12,1.59 15.64,4.77 3.64,3.19 5.46,7.44 5.46,12.75 v 0.35 c 0,5.9 -1.91,10.33 -5.73,13.28 -3.81,2.95 -9.12,4.42 -15.91,4.42 h -27.37 v -35.57 z m -55.45,60.18 h 57.23 c 15.86,0 28.02,-4.19 36.49,-12.57 7.15,-7.08 10.73,-16.52 10.73,-28.32 v -0.35 c 0,-10.04 -2.48,-18.21 -7.43,-24.52 -4.94,-6.31 -11.41,-10.95 -19.4,-13.9 l 30.58,-44.25 h -32.19 l -26.83,39.65 h -0.36 -21.28 v -39.65 h -27.54 v 123.91"
       style="fill:#f15629;fill-opacity:1;fill-rule:nonzero;stroke:none"
       transform="matrix(0.13333333,0,0,-0.13333333,0,1122.6667)" />
    <path
       id="path9"
       d="m 2516.09,3949.75 h 27.25 v -99.3 h 61.78 v -24.61 h -89.03 v 123.91"
       style="fill:#f15629;fill-opacity:1;fill-rule:nonzero;stroke:none"
       transform="matrix(0.13333333,0,0,-0.13333333,0,1122.6667)" />
    <path
       id="path10"
       d="m 2707.17,3848.83 c 5.47,0 10.53,1.01 15.17,3.01 4.63,2 8.58,4.78 11.86,8.31 3.26,3.54 5.82,7.64 7.66,12.3 1.85,4.66 2.77,9.64 2.77,14.94 v 0.36 c 0,5.3 -0.92,10.31 -2.77,15.03 -1.84,4.72 -4.45,8.85 -7.84,12.38 -3.39,3.54 -7.41,6.34 -12.04,8.4 -4.64,2.07 -9.69,3.1 -15.16,3.1 -5.59,0 -10.68,-1 -15.25,-3.01 -4.58,-2 -8.51,-4.77 -11.78,-8.31 -3.27,-3.54 -5.82,-7.64 -7.66,-12.29 -1.84,-4.66 -2.77,-9.64 -2.77,-14.95 v -0.35 c 0,-5.31 0.93,-10.32 2.77,-15.04 1.84,-4.72 4.45,-8.84 7.84,-12.38 3.39,-3.54 7.37,-6.34 11.96,-8.4 4.57,-2.06 9.66,-3.1 15.24,-3.1 z m -0.35,-25.12 c -9.64,0 -18.5,1.69 -26.58,5.05 -8.09,3.36 -15.07,7.9 -20.95,13.62 -5.89,5.72 -10.47,12.44 -13.74,20.16 -3.27,7.73 -4.91,16.01 -4.91,24.85 v 0.36 c 0,8.84 1.67,17.13 5,24.85 3.33,7.72 7.93,14.5 13.82,20.34 5.89,5.84 12.91,10.43 21.05,13.8 8.15,3.36 17.03,5.04 26.66,5.04 9.63,0 18.49,-1.68 26.58,-5.04 8.08,-3.37 15.07,-7.91 20.96,-13.63 5.88,-5.72 10.46,-12.43 13.73,-20.16 3.27,-7.72 4.9,-16 4.9,-24.85 v -0.35 c 0,-8.85 -1.66,-17.13 -4.99,-24.86 -3.33,-7.72 -7.94,-14.5 -13.82,-20.34 -5.89,-5.84 -12.9,-10.43 -21.05,-13.79 -8.14,-3.36 -17.03,-5.05 -26.66,-5.05"
       style="fill:#f15629;fill-opacity:1;fill-rule:nonzero;stroke:none"
       transform="matrix(0.13333333,0,0,-0.13333333,0,1122.6667)" />
    <path
       id="path11"
       d="m 2818.42,3949.75 h 25.28 l 58.39,-76.29 v 76.29 h 27.05 v -123.91 h -23.32 l -60.34,78.77 v -78.77 h -27.06 v 123.91"
       style="fill:#f15629;fill-opacity:1;fill-rule:nonzero;stroke:none"
       transform="matrix(0.13333333,0,0,-0.13333333,0,1122.6667)" />
    <path
       id="path12"
       d="m 3265.36,3877.7 -16.53,40.19 -16.54,-40.19 z m -28.81,72.93 h 25.26 l 53.35,-124.79 h -28.63 l -11.38,27.79 h -52.64 l -11.38,-27.79 h -27.92 l 53.34,124.79"
       style="fill:#999999;fill-opacity:1;fill-rule:nonzero;stroke:none"
       transform="matrix(0.13333333,0,0,-0.13333333,0,1122.6667)" />
    <path
       id="path13"
       d="m 3413.66,3889.57 c 6.79,0 12.01,1.59 15.64,4.77 3.64,3.19 5.46,7.44 5.46,12.75 v 0.35 c 0,5.9 -1.91,10.33 -5.72,13.28 -3.82,2.95 -9.13,4.42 -15.92,4.42 h -27.37 v -35.57 z m -55.45,60.18 h 57.24 c 15.85,0 28.01,-4.19 36.48,-12.57 7.15,-7.08 10.73,-16.52 10.73,-28.32 v -0.35 c 0,-10.04 -2.48,-18.21 -7.43,-24.52 -4.94,-6.31 -11.41,-10.95 -19.4,-13.9 l 30.58,-44.25 h -32.19 l -26.82,39.65 h -0.36 -21.29 v -39.65 h -27.54 v 123.91"
       style="fill:#999999;fill-opacity:1;fill-rule:nonzero;stroke:none"
       transform="matrix(0.13333333,0,0,-0.13333333,0,1122.6667)" />
    <path
       id="path14"
       d="m 3519.32,3949.75 h 27.25 v -99.3 h 61.79 v -24.61 h -89.04 v 123.91"
       style="fill:#999999;fill-opacity:1;fill-rule:nonzero;stroke:none"
       transform="matrix(0.13333333,0,0,-0.13333333,0,1122.6667)" />
    <path
       id="path15"
       d="m 3710.4,3848.83 c 5.48,0 10.53,1.01 15.17,3.01 4.63,2 8.59,4.78 11.86,8.31 3.27,3.54 5.82,7.64 7.66,12.3 1.85,4.66 2.77,9.64 2.77,14.94 v 0.36 c 0,5.3 -0.92,10.31 -2.77,15.03 -1.84,4.72 -4.45,8.85 -7.84,12.38 -3.39,3.54 -7.4,6.34 -12.04,8.4 -4.64,2.07 -9.69,3.1 -15.16,3.1 -5.59,0 -10.67,-1 -15.25,-3.01 -4.58,-2 -8.5,-4.77 -11.77,-8.31 -3.28,-3.54 -5.83,-7.64 -7.67,-12.29 -1.84,-4.66 -2.77,-9.64 -2.77,-14.95 v -0.35 c 0,-5.31 0.93,-10.32 2.77,-15.04 1.84,-4.72 4.46,-8.84 7.85,-12.38 3.38,-3.54 7.36,-6.34 11.95,-8.4 4.57,-2.06 9.66,-3.1 15.24,-3.1 z m -0.35,-25.12 c -9.63,0 -18.5,1.69 -26.58,5.05 -8.09,3.36 -15.07,7.9 -20.95,13.62 -5.89,5.72 -10.47,12.44 -13.74,20.16 -3.27,7.73 -4.9,16.01 -4.9,24.85 v 0.36 c 0,8.84 1.66,17.13 4.99,24.85 3.33,7.72 7.93,14.5 13.83,20.34 5.88,5.84 12.9,10.43 21.04,13.8 8.15,3.36 17.03,5.04 26.66,5.04 9.64,0 18.49,-1.68 26.58,-5.04 8.09,-3.37 15.07,-7.91 20.96,-13.63 5.88,-5.72 10.46,-12.43 13.73,-20.16 3.27,-7.72 4.9,-16 4.9,-24.85 v -0.35 c 0,-8.85 -1.66,-17.13 -4.98,-24.86 -3.33,-7.72 -7.95,-14.5 -13.83,-20.34 -5.88,-5.84 -12.9,-10.43 -21.05,-13.79 -8.14,-3.36 -17.03,-5.05 -26.66,-5.05"
       style="fill:#999999;fill-opacity:1;fill-rule:nonzero;stroke:none"
       transform="matrix(0.13333333,0,0,-0.13333333,0,1122.6667)" />
    <path
       id="path16"
       d="m 3821.66,3949.75 h 25.27 l 58.39,-76.29 v 76.29 h 27.06 v -123.91 h -23.33 l -60.34,78.77 v -78.77 h -27.05 v 123.91"
       style="fill:#999999;fill-opacity:1;fill-rule:nonzero;stroke:none"
       transform="matrix(0.13333333,0,0,-0.13333333,0,1122.6667)" />
    <path
       id="path17"
       d="m 2473.17,3702.18 c 171.79,0 311.26,-136.54 313.19,-305.68 l -316.78,-312.7 c -171.35,1.9 -309.65,139.58 -309.65,309.16 0,170.78 140.24,309.22 313.24,309.22"
       style="fill:#f15629;fill-opacity:1;fill-rule:nonzero;stroke:none"
       transform="matrix(0.13333333,0,0,-0.13333333,0,1122.6667)" />
    <path
       id="path18"
       d="m 2469.18,3083.81 c -4.88,0.06 -9.74,0.24 -14.57,0.51 3.69,133.18 82.89,248.86 210.47,290.26 -21.43,-8.54 -41.68,-19.37 -60.45,-32.15 -81.85,-55.78 -135.49,-149.04 -135.49,-254.65 l 0.04,-3.97"
       style="fill:#db4e25;fill-opacity:1;fill-rule:evenodd;stroke:none"
       transform="matrix(0.13333333,0,0,-0.13333333,0,1122.6667)" />
    <path
       id="path19"
       d="m 2539.06,3331.47 h -122.47 l -26.78,-64.25 h -67.99 l 126.45,290.62 h 60.79 l 126.46,-290.62 h -69.66 z m -23.88,57.75 -37.35,89.16 -37.34,-89.16 z"
       style="fill:#ffffff;fill-opacity:1;fill-rule:evenodd;stroke:none"
       transform="matrix(0.13333333,0,0,-0.13333333,0,1122.6667)" />
    <path
       id="path20"
       d="m 2786.35,3396.94 0.01,-0.44 -316.79,-312.7 h -0.39 c -0.01,1.33 -0.04,2.65 -0.04,3.98 0,170.77 140.24,309.21 313.24,309.21 1.33,0 2.65,-0.03 3.97,-0.05"
       style="fill:url(#linearGradient21);fill-opacity:1;fill-rule:nonzero;stroke:none"
       transform="matrix(0.13333333,0,0,-0.13333333,0,1122.6667)"
       clip-path="url(#clipPath21)" />
    <path
       id="path22"
       d="m 2549.72,3305.9 c 15.57,14.93 32.85,28.25 51.71,39.65 l 1.79,-4.1 c -18.29,-12.61 -35.16,-27.1 -50.31,-43.19 l -3.19,7.64"
       style="fill:#e6f1f7;fill-opacity:1;fill-rule:evenodd;stroke:none"
       transform="matrix(0.13333333,0,0,-0.13333333,0,1122.6667)" />
    <path
       id="path23"
       d="m 3563.03,4836.2 c 217.79,0 394.6,-173.09 397.04,-387.52 l -401.59,-396.43 c -217.23,2.41 -392.57,176.96 -392.57,391.95 0,216.49 177.79,392 397.12,392"
       style="fill:#f15629;fill-opacity:1;fill-rule:nonzero;stroke:none"
       transform="matrix(0.13333333,0,0,-0.13333333,0,1122.6667)" />
    <path
       id="path24"
       d="m 3557.97,4052.26 c -6.19,0.08 -12.35,0.3 -18.47,0.66 4.68,168.83 105.08,315.49 266.82,367.97 -27.16,-10.84 -52.84,-24.55 -76.62,-40.76 -103.78,-70.72 -171.79,-188.94 -171.79,-322.83 l 0.06,-5.04"
       style="fill:#db4e25;fill-opacity:1;fill-rule:evenodd;stroke:none"
       transform="matrix(0.13333333,0,0,-0.13333333,0,1122.6667)" />
    <path
       id="path25"
       d="m 3646.56,4366.24 h -155.27 l -33.94,-81.46 h -86.19 l 160.3,368.44 h 77.08 l 160.3,-368.44 h -88.31 z m -30.27,73.21 -47.36,113.03 -47.33,-113.03 z"
       style="fill:#ffffff;fill-opacity:1;fill-rule:evenodd;stroke:none"
       transform="matrix(0.13333333,0,0,-0.13333333,0,1122.6667)" />
    <path
       id="path26"
       d="m 3960.07,4449.24 v -0.56 l -401.6,-396.43 -0.5,0.01 c -0.02,1.67 -0.06,3.35 -0.06,5.04 0,216.49 177.79,392 397.12,392 1.68,0 3.36,-0.04 5.04,-0.06"
       style="fill:url(#linearGradient27);fill-opacity:1;fill-rule:nonzero;stroke:none"
       transform="matrix(0.13333333,0,0,-0.13333333,0,1122.6667)"
       clip-path="url(#clipPath27)" />
    <path
       id="path28"
       d="m 3660.08,4333.82 c 19.73,18.93 41.63,35.81 65.55,50.27 l 2.27,-5.2 c -23.19,-16 -44.57,-34.36 -63.78,-54.76 l -4.04,9.69"
       style="fill:#e6f1f7;fill-opacity:1;fill-rule:evenodd;stroke:none"
       transform="matrix(0.13333333,0,0,-0.13333333,0,1122.6667)" />
  </g>
</svg>
