<?xml version="1.0" encoding="UTF-8" standalone="no"?>
<!-- Created with Inkscape (http://www.inkscape.org/) -->

<svg
   version="1.1"
   id="svg1"
   width="793.33331"
   height="1122.6667"
   viewBox="0 0 793.33331 1122.6667"
   sodipodi:docname="avery-temp.pdf"
   xmlns:inkscape="http://www.inkscape.org/namespaces/inkscape"
   xmlns:sodipodi="http://sodipodi.sourceforge.net/DTD/sodipodi-0.dtd"
   xmlns="http://www.w3.org/2000/svg"
   xmlns:svg="http://www.w3.org/2000/svg">
  <defs
     id="defs1" />
  <sodipodi:namedview
     id="namedview1"
     pagecolor="#ffffff"
     bordercolor="#000000"
     borderopacity="0.25"
     inkscape:showpageshadow="2"
     inkscape:pageopacity="0.0"
     inkscape:pagecheckerboard="0"
     inkscape:deskcolor="#d1d1d1">
    <inkscape:page
       x="0"
       y="0"
       inkscape:label="1"
       id="page1"
       width="793.33331"
       height="1122.6667"
       margin="0"
       bleed="0" />
  </sodipodi:namedview>
  <g
     id="g1"
     inkscape:groupmode="layer"
     inkscape:label="1">
    <path
       id="path1"
       d="M 2012.6,5173.23 H 3940.16 V 3245.67 H 2012.6 v 1927.56"
       style="fill:#ffffff;fill-opacity:1;fill-rule:evenodd;stroke:none"
       transform="matrix(0.13333333,0,0,-0.13333333,0,1122.6667)" />
    <path
       id="path2"
       d="m 3410.94,4106.48 h 39.27 v -139.56 h -39.27 v 139.56"
       style="fill:#231f20;fill-opacity:1;fill-rule:evenodd;stroke:none"
       transform="matrix(0.13333333,0,0,-0.13333333,0,1122.6667)" />
    <path
       id="path3"
       d="m 3063.53,4291.37 h 124.77 v -29.31 h -87.31 v -25.07 h 80.36 v -27.79 h -80.36 v -28.1 h 87.31 v -29.3 h -124.77 v 139.57"
       style="fill:#231f20;fill-opacity:1;fill-rule:evenodd;stroke:none"
       transform="matrix(0.13333333,0,0,-0.13333333,0,1122.6667)" />
    <path
       id="path4"
       d="m 3571.05,4075.37 v 31.42 c -11.48,2.71 -25.38,4.23 -41.39,4.23 -22.66,0.6 -62.84,-5.44 -61.02,-45.92 2.11,-25.38 20.24,-31.72 45.61,-40.18 21.76,-6.95 26.29,-8.76 25.38,-18.73 -1.81,-10.27 -13.9,-10.88 -21.45,-11.18 -14.5,0 -34.74,3.02 -48.94,7.56 v -33.84 c 0,0 26.28,-5.44 50.46,-5.74 18.12,0 58,6.05 61.32,44.11 0.61,25.37 -14.81,34.43 -26.59,39.57 -30.81,12.69 -38.97,12.09 -42.89,18.13 -4.84,10.87 7.85,15.71 22.95,14.8 4.53,-0.3 13.6,-0.91 36.56,-4.23"
       style="fill:#231f20;fill-opacity:1;fill-rule:evenodd;stroke:none"
       transform="matrix(0.13333333,0,0,-0.13333333,0,1122.6667)" />
    <path
       id="path5"
       d="m 3169.56,3966.92 h 49.85 v 139.56 h -37.46 c 0,0 0,-57.39 0,-93.94 l -57.09,93.94 h -49.85 v -139.56 h 37.76 c 0,0 0,57.4 0,94.25 l 56.79,-94.25"
       style="fill:#231f20;fill-opacity:1;fill-rule:evenodd;stroke:none"
       transform="matrix(0.13333333,0,0,-0.13333333,0,1122.6667)" />
    <path
       id="path6"
       d="m 3347.8,4151.8 -46.52,57.09 c 14.2,-0.6 36.55,10.88 37.16,37.16 0.9,35.34 -16.62,45.32 -43.51,45.32 h -90.62 V 4151.8 h 38.97 v 110.26 h 37.46 c 7.25,0 19.33,-0.6 19.33,-16.61 0,-13.9 -9.97,-16.32 -19.63,-16.32 h -33.23 l 52.86,-77.33 h 47.73"
       style="fill:#231f20;fill-opacity:1;fill-rule:evenodd;stroke:none"
       transform="matrix(0.13333333,0,0,-0.13333333,0,1122.6667)" />
    <path
       id="path7"
       d="m 2933.63,4106.48 h 124.76 v -29.3 h -87.3 v -25.07 h 80.36 v -27.79 h -80.36 v -28.1 h 87.3 v -29.3 h -124.76 v 139.56"
       style="fill:#231f20;fill-opacity:1;fill-rule:evenodd;stroke:none"
       transform="matrix(0.13333333,0,0,-0.13333333,0,1122.6667)" />
    <path
       id="path8"
       d="m 3337.23,3966.92 h 49.84 v 139.56 h -37.46 c 0,0 0,-57.39 0,-93.94 l -57.09,93.94 h -49.85 v -139.56 h 38.07 c 0,0 0,57.4 0,94.25 l 56.49,-94.25"
       style="fill:#231f20;fill-opacity:1;fill-rule:evenodd;stroke:none"
       transform="matrix(0.13333333,0,0,-0.13333333,0,1122.6667)" />
    <path
       id="path9"
       d="m 3861.96,3966.92 h 49.85 v 139.56 h -37.47 c 0,0 0,-57.39 0,-93.94 l -57.09,93.94 h -49.84 v -139.56 h 37.76 c 0,0 0,57.4 0,94.25 l 56.79,-94.25"
       style="fill:#231f20;fill-opacity:1;fill-rule:evenodd;stroke:none"
       transform="matrix(0.13333333,0,0,-0.13333333,0,1122.6667)" />
    <path
       id="path10"
       d="m 3408.82,4238.8 -32.32,52.86 h -44.11 l 62.54,-90.62 v -49.24 h 37.46 v 49.24 l 63.44,90.62 h -44.41 l -32.93,-52.86 c -3.02,-4.84 -4.83,-9.67 -4.83,-9.67 0,0 -1.82,4.83 -4.84,9.67"
       style="fill:#231f20;fill-opacity:1;fill-rule:evenodd;stroke:none"
       transform="matrix(0.13333333,0,0,-0.13333333,0,1122.6667)" />
    <path
       id="path11"
       d="m 3670.14,3962.39 c -51.97,-0.91 -81.27,28.4 -80.96,75.22 0.29,46.82 28.99,76.43 80.66,75.22 52.25,1.21 81.25,-28.4 81.25,-75.22 0.31,-46.82 -29,-76.13 -80.95,-75.22 z m 0,33.83 c 28.09,0 42.59,16.01 42.59,41.39 0,25.37 -14.5,41.69 -42.59,41.69 -27.8,0 -42.6,-16.32 -42.6,-41.69 0,-25.38 14.8,-41.39 42.6,-41.39"
       style="fill:#231f20;fill-opacity:1;fill-rule:evenodd;stroke:none"
       transform="matrix(0.13333333,0,0,-0.13333333,0,1122.6667)" />
    <path
       id="path12"
       d="m 2854.78,4106.48 c 49.85,0 64.95,-40.78 64.66,-70.08 -0.61,-32.33 -15.11,-69.48 -63.75,-69.48 h -86.1 v 139.56 z m 25.68,-69.78 c 0,29.61 -18.12,38.67 -40.48,38.67 h -32.32 v -77.34 h 31.41 c 22.66,0 41.39,5.75 41.39,38.67"
       style="fill:#231f20;fill-opacity:1;fill-rule:evenodd;stroke:none"
       transform="matrix(0.13333333,0,0,-0.13333333,0,1122.6667)" />
    <path
       id="path13"
       d="m 2818.23,4181.71 -11.78,-29.91 h -41.69 l 58.61,139.57 h 49.24 l 58.3,-139.57 h -41.69 l -11.77,29.91 z m 34.75,63.74 c 0,0 -2.73,7.55 -4.84,14.5 -1.81,-7.25 -4.53,-14.5 -4.53,-14.5 l -14.2,-35.95 h 37.46 l -13.89,35.95"
       style="fill:#231f20;fill-opacity:1;fill-rule:evenodd;stroke:none"
       transform="matrix(0.13333333,0,0,-0.13333333,0,1122.6667)" />
    <path
       id="path14"
       d="m 2040.95,4070.54 c 0,16.61 3.32,25.37 8.76,40.48 3.93,8.16 1.5,3.62 12.68,25.37 21.15,37.76 180.35,322.04 180.35,322.04 10.58,18.42 26.89,46.82 26.89,46.82 22.35,38.36 42.59,54.98 70.39,62.83 2.53,0.7 5.05,1.31 7.55,1.82 h 44.59 c 11.53,-2.4 22.02,-6.56 30.93,-11.79 16.92,-9.96 32.33,-28.09 42.9,-47.12 3.63,-5.74 3.32,-4.23 16.92,-28.7 l 198.47,-348.01 c 16.32,-28.4 26.58,-53.17 17.23,-88.82 -14.81,-50.75 -54.69,-74.31 -107.86,-77.64 -15.1,-1.5 -11.48,-0.6 -23.56,-1.2 -78.24,0 -352.54,-0.3 -391.21,0 -26.28,0.3 -11.18,0.3 -21.75,0.6 -75.22,0.3 -113.28,54.38 -113.28,103.32 z m 232,107.84 143.8,252.86 c 10.88,20.84 12.39,36.25 8.46,50.14 -9.07,30.82 -40.79,49.54 -73.11,39.58 -13.9,-3.93 -25.07,-12.39 -36.85,-33.23 l -176.73,-314.78 c 12.39,4.22 24.77,5.73 35.04,6.04 h 5.44 l 166.45,294.54 c 6.05,10.27 10.58,13.89 16.62,16.01 15.41,4.53 28.09,-4.23 31.72,-17.22 1.51,-6.65 0,-13.89 -4.83,-22.96 l -154.37,-270.98 z m 56.19,-0.3 h 84.59 l -42.9,74.01 z m 69.49,122.05 142.28,-248.93 c 9.67,-15.71 19.33,-27.79 36.86,-33.53 31.41,-9.97 65.25,9.67 72.8,41.39 4.53,19.63 -1.04,33.62 -8.76,47.12 l -181.86,318.41 c -2.12,-17.22 -8.76,-29.91 -13.9,-41.39 l 167.36,-293.03 c 6.04,-10.87 7.25,-17.52 5.44,-23.86 -3.33,-13.3 -18.43,-21.45 -30.51,-17.22 -6.04,1.81 -10.88,6.04 -18.13,18.12 l -152.25,266.75 z m 115.09,-285.18 c -14.8,12.39 -19.63,21.15 -27.18,33.23 h -338.05 c -6.34,0 -13.29,1.82 -18.12,6.65 -9.97,9.36 -10.58,25.07 -0.91,34.74 4.83,4.53 12.99,7.25 19.03,7.25 h 310.25 l -19.33,33.53 h -287.6 c -18.72,-0.3 -34.13,-6.65 -45.31,-17.52 -22.96,-22.36 -22.96,-59.21 2.42,-83.08 15.4,-12.69 27.79,-13.89 45.61,-14.8 h 359.19"
       style="fill:#dd6145;fill-opacity:1;fill-rule:evenodd;stroke:none"
       transform="matrix(0.13333333,0,0,-0.13333333,0,1122.6667)" />
    <path
       id="path15"
       d="m 2978.94,4193.48 -38.37,97.89 h -42.59 l 59.82,-139.57 h 41.68 l 59.82,139.57 h -42.29 l -38.07,-97.89"
       style="fill:#231f20;fill-opacity:1;fill-rule:evenodd;stroke:none"
       transform="matrix(0.13333333,0,0,-0.13333333,0,1122.6667)" />
  </g>
</svg>
